<svg width="258" height="394" viewBox="0 0 258 394" fill="none" xmlns="http://www.w3.org/2000/svg">
<g clip-path="url(#clip0_96_405)">
<g clip-path="url(#clip1_96_405)">
<path d="M221.042 212.402L218.1 261.084C218.1 282.305 211.148 301.814 199.237 317.214C199.026 317.486 198.819 317.754 198.6 318.023C197.067 319.962 195.451 321.835 193.756 323.634C181.746 336.413 165.933 345.574 147.772 349.337C142.908 350.344 137.878 350.967 132.707 351.169C131.959 351.198 131.207 351.223 130.459 351.231C129.971 351.239 129.479 351.243 128.988 351.243C128.496 351.243 128.004 351.243 127.52 351.231C126.768 351.219 126.016 351.198 125.272 351.169C120.11 350.971 115.084 350.348 110.228 349.341C92.0672 345.578 76.2501 336.43 64.2395 323.655C62.545 321.856 60.9331 319.987 59.3997 318.051C59.1848 317.787 58.974 317.519 58.7674 317.251C46.8353 301.843 39.8753 282.322 39.8753 261.088L36.9326 212.406C36.9326 190.664 46.5336 171.126 61.8134 157.633C61.9209 157.534 62.0325 157.431 62.1441 157.336C63.0285 156.564 63.9337 155.809 64.8595 155.079L80.3294 148.572L87.6035 145.51L91.7613 143.761L102.404 139.288C102.768 139.238 103.131 139.193 103.499 139.156C106.363 138.83 109.273 138.665 112.228 138.665H145.755C148.714 138.665 151.636 138.834 154.509 139.156C154.881 139.197 155.249 139.242 155.617 139.292H155.625L166.247 143.756L170.405 145.506L177.679 148.568L193.099 155.058C194.037 155.801 194.955 156.564 195.856 157.353C195.967 157.452 196.079 157.551 196.191 157.65C211.454 171.143 221.051 190.672 221.051 212.402H221.042Z" fill="#E6E6E6"/>
<path d="M217.55 215.084L214.719 262.825C214.719 311.165 178.633 364.344 130.455 365.128C129.967 365.137 129.475 365.141 128.983 365.141C128.492 365.141 128 365.141 127.512 365.128C79.3333 364.344 43.2479 311.165 43.2479 262.825L40.4167 215.084C40.4167 197.803 46.4882 181.937 56.6141 169.5C57.234 168.741 57.8705 167.99 58.5194 167.256C71.7905 152.24 91.2116 142.766 112.852 142.766H145.11C166.747 142.766 186.168 152.24 199.443 167.256C200.092 167.994 200.729 168.741 201.349 169.5C211.474 181.937 217.546 197.803 217.546 215.084H217.55Z" fill="url(#paint0_linear_96_405)"/>
<path d="M120.974 208.321L120.019 211.098C97.6098 203.431 78.7921 189.509 66.9593 179.172C62.9957 175.715 59.5239 172.413 56.6226 169.5C57.2425 168.741 57.879 167.99 58.5279 167.256C61.4375 170.177 64.9341 173.507 68.9472 177.006C80.5734 187.153 99.0398 200.815 120.974 208.321Z" fill="url(#paint1_linear_96_405)"/>
<path d="M201.353 169.5C198.452 172.413 194.98 175.715 191.016 179.172C179.179 189.505 160.366 203.431 137.956 211.098L137.002 208.321C158.936 200.819 177.402 187.153 189.028 177.006C193.041 173.507 196.538 170.177 199.448 167.256C200.096 167.994 200.733 168.741 201.353 169.5Z" fill="url(#paint2_linear_96_405)"/>
<path d="M67.6659 242.812L190.305 242.812V179.379H67.6659L67.6659 242.812Z" fill="url(#paint3_radial_96_405)"/>
<path d="M189.322 180.365H68.6538V241.83H189.322V180.365Z" fill="black"/>
<path d="M258 394H204.436L199.241 359.756V359.735V359.727L184.837 264.76L181.204 240.815L177.299 215.051L196.174 156.362V156.35C196.174 156.35 215.025 161.603 228.341 192.864C229.995 196.734 231.561 201.001 232.991 205.709C235.822 214.997 238.141 225.989 239.592 238.987C244.183 280.077 251.92 344.183 258.008 394.008L258 394Z" fill="white"/>
<path d="M199.749 394H146.342L147.351 362.562L147.776 349.337L147.781 349.221L147.925 344.662L148.62 322.887L150.215 273.038L151.182 242.812L151.215 241.83L151.819 222.936L152.017 216.714L152.389 205.135L152.476 202.35L152.496 201.813L152.674 196.144L153.178 180.365L153.216 179.383L154.323 144.767L154.369 143.352L154.414 141.904L154.505 139.151L154.513 138.825L155.609 139.288H155.617L166.239 143.756L170.396 145.506L177.671 148.564L193.091 155.054L196.166 156.35V156.358L196.187 157.646L196.278 163.893L196.377 170.272L196.435 174.266L197.133 220.629L197.48 243.889L198.563 315.142L198.604 318.022L199.237 359.661V359.735V359.979L199.749 394Z" fill="white"/>
<path opacity="0.5" d="M199.237 362.108V236.487" stroke="black" stroke-width="2" stroke-linecap="round" stroke-linejoin="round"/>
<path opacity="0.5" d="M155.468 139.865L183.779 170.689L164.094 183.74L177.29 199.078L148.624 322.887" stroke="black" stroke-width="2" stroke-linecap="round" stroke-linejoin="round"/>
<path d="M80.7056 215.046L76.7999 240.811L73.1711 264.756L58.7634 359.723V359.731L53.564 394H0C6.08795 344.175 13.8208 280.069 18.4168 238.979C19.8716 225.981 22.1861 214.989 25.0172 205.7C26.4472 200.996 28.0136 196.726 29.6669 192.855C42.9876 161.594 61.8342 156.342 61.8342 156.342L80.7097 215.042L80.7056 215.046Z" fill="white"/>
<path d="M111.654 394H58.2468L58.7635 359.735V359.661L59.3958 318.047L59.4371 315.175L60.5159 243.889L60.863 220.629L61.5615 174.291L61.6235 170.297L61.7186 163.872L61.8136 157.629L61.8302 156.35L64.8597 155.071L80.3296 148.564L87.6037 145.506L91.7574 143.756L102.4 139.279L103.483 138.825L103.495 139.151L103.586 141.904L103.632 143.348L103.673 144.767L104.785 179.383L104.818 180.365L105.322 196.144L105.508 201.826L105.52 202.35L105.611 205.148L105.979 216.714L106.178 222.936L106.785 241.83L106.814 242.812L107.781 273.038L109.376 322.887L110.075 344.662L110.22 349.226L110.224 349.341L110.649 362.562L111.654 394Z" fill="white"/>
<path opacity="0.5" d="M58.7634 362.108V236.487" stroke="black" stroke-width="2" stroke-linecap="round" stroke-linejoin="round"/>
<path opacity="0.5" d="M102.532 139.865L74.2209 170.689L93.9066 183.74L80.7098 199.078L109.376 322.887" stroke="black" stroke-width="2" stroke-linecap="round" stroke-linejoin="round"/>
<g opacity="0.05">
<path d="M109.041 135.405V138.219C98.7089 139.911 91.0504 148.951 91.0504 160.187V225.713C95.8075 226.377 99.4694 230.45 99.4694 235.381C99.4694 240.774 95.0883 245.148 89.6865 245.148C89.6121 245.148 89.5377 245.144 89.4592 245.14C89.3848 245.14 89.3104 245.148 89.2318 245.148C83.83 245.148 79.449 240.774 79.449 235.381C79.449 230.45 83.1108 226.373 87.8721 225.713V160.187C87.8721 147.256 96.9482 136.915 109.037 135.405H109.041Z" fill="black"/>
</g>
<path d="M86.7521 245.152C92.155 245.152 96.535 240.779 96.535 235.385C96.535 229.991 92.155 225.618 86.7521 225.618C81.3492 225.618 76.9692 229.991 76.9692 235.385C76.9692 240.779 81.3492 245.152 86.7521 245.152Z" fill="#E1F4FF"/>
<path d="M87.2025 245.152C92.6055 245.152 96.9854 240.779 96.9854 235.385C96.9854 229.991 92.6055 225.618 87.2025 225.618C81.7996 225.618 77.4197 229.991 77.4197 235.385C77.4197 240.779 81.7996 245.152 87.2025 245.152Z" fill="#C3E9FE"/>
<path d="M92.1228 236.638C92.8228 233.677 90.986 230.711 88.0202 230.012C85.0544 229.313 82.0827 231.147 81.3827 234.108C80.6827 237.069 82.5195 240.036 85.4853 240.734C88.4511 241.433 91.4228 239.599 92.1228 236.638Z" fill="#69C8FD"/>
<path d="M109.042 135.219V137.934C97.2582 138.248 88.1119 147.907 88.1119 160.183V232.678H85.3923V160.183C85.3923 146.381 95.7332 135.528 109.042 135.219Z" fill="#69C8FD"/>
<path d="M109.041 135.235V137.955C97.4773 138.499 88.5664 148.068 88.5664 160.187V232.682H85.8469V160.187C85.8469 146.541 95.9522 135.784 109.041 135.235Z" fill="#05A3FC"/>
<path d="M92.5735 236.642C93.2734 233.681 91.4367 230.714 88.4709 230.015C85.5051 229.317 82.5334 231.15 81.8334 234.111C81.1334 237.072 82.9702 240.039 85.936 240.738C88.9018 241.437 91.8735 239.603 92.5735 236.642Z" fill="#05A3FC"/>
<path d="M87.2026 239.28C89.3574 239.28 91.1042 237.536 91.1042 235.385C91.1042 233.234 89.3574 231.49 87.2026 231.49C85.0478 231.49 83.301 233.234 83.301 235.385C83.301 237.536 85.0478 239.28 87.2026 239.28Z" fill="#CDDCE5"/>
<path d="M86.7522 239.28C88.9069 239.28 90.6537 237.536 90.6537 235.385C90.6537 233.234 88.9069 231.49 86.7522 231.49C84.5974 231.49 82.8506 233.234 82.8506 235.385C82.8506 237.536 84.5974 239.28 86.7522 239.28Z" fill="#03527E"/>
<path opacity="0.05" d="M182.94 173.441H180.237V159.932C180.237 153.565 177.493 147.515 172.508 142.898C167.908 138.636 161.767 136.115 155.65 135.908V138.648C160.994 138.962 166.218 141.198 170.206 144.891C174.629 148.989 177.063 154.332 177.063 159.932V173.441H174.36C167.222 173.441 161.419 179.239 161.419 186.361V194.172H162.213V225.16C162.213 230.986 166.478 235.839 172.054 236.772V236.957C172.054 237.568 172.55 238.059 173.157 238.059H175.087C175.699 238.059 176.191 237.564 176.191 236.957V235.789C176.191 235.179 175.695 234.688 175.087 234.688H173.157C172.616 234.688 172.165 235.076 172.07 235.591C167.226 234.589 163.569 230.297 163.569 225.168V194.18H164.589V191.279C166.371 185.135 171.971 180.728 178.559 180.592H178.58C182.208 180.629 185.701 181.974 188.441 184.384C190.417 186.121 191.871 188.308 192.706 190.718V194.18H193.5V225.168C193.5 230.376 189.735 234.721 184.779 235.633C184.701 235.1 184.246 234.692 183.688 234.692H181.758C181.146 234.692 180.654 235.187 180.654 235.794V236.961C180.654 237.572 181.15 238.063 181.758 238.063H183.688C184.3 238.063 184.792 237.568 184.792 236.961V236.813C190.479 235.975 194.856 231.069 194.856 225.164V194.176H195.876V186.365C195.876 179.239 190.069 173.445 182.936 173.445L182.94 173.441ZM182.485 176.156C188.119 176.156 192.706 180.736 192.706 186.361V187.14C191.88 185.812 190.851 184.586 189.648 183.526C186.664 180.897 182.837 179.449 178.877 179.449C178.786 179.449 178.695 179.449 178.6 179.449H178.588C178.534 179.449 178.48 179.449 178.427 179.449C172.562 179.449 167.383 182.597 164.598 187.371V186.365C164.598 180.74 169.185 176.16 174.819 176.16H182.49L182.485 176.156Z" fill="#333333"/>
<path d="M180.464 236.937V235.806C186.342 235.806 191.128 231.032 191.128 225.16V193.949H192.26V225.16C192.26 231.655 186.97 236.937 180.464 236.937Z" fill="#E1F4FF"/>
<path d="M180.692 236.937V235.806C186.569 235.806 191.355 231.032 191.355 225.16V193.949H192.487V225.16C192.487 231.655 187.197 236.937 180.692 236.937Z" fill="#69C8FD"/>
<path d="M171.636 236.937C165.131 236.937 159.841 231.655 159.841 225.16V193.722H160.973V225.16C160.973 231.032 165.755 235.806 171.636 235.806V236.937Z" fill="#E1F4FF"/>
<path d="M171.864 236.937C165.358 236.937 160.068 231.655 160.068 225.16V193.722H161.2V225.16C161.2 231.032 165.982 235.806 171.864 235.806V236.937Z" fill="#69C8FD"/>
<path d="M177.41 159.936V174.951H174.691V159.936C174.691 154.336 172.256 148.993 167.834 144.895C163.845 141.198 158.559 138.974 153.215 138.66L153.277 135.933C159.299 136.251 165.197 138.751 169.685 142.906C174.67 147.524 177.414 153.573 177.414 159.94L177.41 159.936Z" fill="#E1F4FF"/>
<path d="M171.988 234.684H171.281C170.395 234.684 169.677 235.4 169.677 236.285V236.458C169.677 237.342 170.395 238.059 171.281 238.059H171.988C172.873 238.059 173.591 237.342 173.591 236.458V236.285C173.591 235.4 172.873 234.684 171.988 234.684Z" fill="#047ABD"/>
<path d="M172.215 234.684H171.508C170.623 234.684 169.905 235.4 169.905 236.285V236.458C169.905 237.342 170.623 238.059 171.508 238.059H172.215C173.101 238.059 173.819 237.342 173.819 236.458V236.285C173.819 235.4 173.101 234.684 172.215 234.684Z" fill="#05A3FC"/>
<path d="M180.82 234.684H180.113C179.227 234.684 178.51 235.4 178.51 236.285V236.458C178.51 237.342 179.227 238.059 180.113 238.059H180.82C181.706 238.059 182.423 237.342 182.423 236.458V236.285C182.423 235.4 181.706 234.684 180.82 234.684Z" fill="#047ABD"/>
<path d="M180.593 234.684H179.886C179 234.684 178.282 235.4 178.282 236.285V236.458C178.282 237.342 179 238.059 179.886 238.059H180.593C181.478 238.059 182.196 237.342 182.196 236.458V236.285C182.196 235.4 181.478 234.684 180.593 234.684Z" fill="#05A3FC"/>
<path d="M180.113 173.441H171.988C164.85 173.441 159.047 179.238 159.047 186.36V194.172H161.767V191.271C163.577 185.028 169.326 180.58 176.05 180.58C176.096 180.58 176.141 180.58 176.187 180.58H176.207C179.836 180.617 183.329 181.962 186.069 184.372C188.044 186.109 189.499 188.296 190.334 190.705V194.167H193.054V186.356C193.054 179.23 187.247 173.437 180.113 173.437V173.441ZM161.767 186.36C161.767 180.736 166.354 176.156 171.988 176.156H180.113C185.746 176.156 190.334 180.736 190.334 186.36V187.912C189.441 186.278 188.259 184.788 186.821 183.526C183.882 180.934 180.121 179.49 176.228 179.449H176.216C176.162 179.449 176.108 179.449 176.055 179.449C170.19 179.449 165.011 182.597 162.225 187.371C162.064 187.64 161.915 187.916 161.771 188.197V186.365L161.767 186.36Z" fill="#69C8FD"/>
<path d="M180.568 173.441H177.865V159.932C177.865 153.565 175.12 147.515 170.136 142.898C165.536 138.636 159.394 136.115 153.277 135.908L153.215 138.627C158.659 138.834 164.184 141.091 168.288 144.891C172.711 148.989 175.145 154.332 175.145 159.932V173.441H172.442C165.304 173.441 159.502 179.239 159.502 186.361V194.172H162.221V191.271C164.003 185.127 169.603 180.72 176.191 180.584H176.211C176.311 180.584 176.406 180.584 176.505 180.584C180.187 180.584 183.746 181.933 186.528 184.38C188.503 186.117 189.958 188.304 190.793 190.714V194.176H193.512V186.365C193.512 179.239 187.705 173.445 180.572 173.445L180.568 173.441ZM190.789 187.916C190.644 187.652 190.495 187.396 190.334 187.14C189.507 185.812 188.478 184.586 187.276 183.526C184.292 180.897 180.464 179.449 176.505 179.449C176.414 179.449 176.323 179.449 176.228 179.449H176.216C170.136 179.556 164.837 183.043 162.221 188.193V186.361C162.221 180.736 166.809 176.156 172.442 176.156H180.568C186.201 176.156 190.789 180.736 190.789 186.361V187.912V187.916Z" fill="#05A3FC"/>
<path d="M154.265 143.451C154.265 142.378 103.607 142.275 103.607 143.348L103.541 134.299H154.435L154.265 143.455V143.451Z" fill="#DDDDDD"/>
<path d="M105.921 213.986L111.654 198.265L118.3 213.986L127.458 219.569L137.002 203.126L146.342 213.986H152.017" stroke="#29ABE2" stroke-width="4" stroke-miterlimit="10"/>
<path d="M204.308 76.5512C204.308 114.026 163.709 137.344 126.169 137.344C88.6326 137.344 48.0298 114.026 48.0298 76.5512C48.0298 39.0761 88.6326 0 126.169 0C163.705 0 204.308 39.0761 204.308 76.5512Z" fill="url(#paint4_radial_96_405)"/>
<path d="M187.937 64.0731C187.937 98.1316 160.283 122.204 126.169 122.204C92.0547 122.204 64.4006 98.1275 64.4006 64.0731C64.4006 30.0188 92.0588 2.40967 126.169 2.40967C160.279 2.40967 187.937 30.0188 187.937 64.0773V64.0731Z" fill="url(#paint5_linear_96_405)"/>
<path d="M99.4778 68.6699C107.081 68.6699 113.245 60.8536 113.245 51.2116C113.245 41.5696 107.081 33.7532 99.4778 33.7532C91.8744 33.7532 85.7107 41.5696 85.7107 51.2116C85.7107 60.8536 91.8744 68.6699 99.4778 68.6699Z" fill="url(#paint6_linear_96_405)"/>
<path d="M157.105 68.6699C164.708 68.6699 170.872 60.8536 170.872 51.2116C170.872 41.5696 164.708 33.7532 157.105 33.7532C149.501 33.7532 143.337 41.5696 143.337 51.2116C143.337 60.8536 149.501 68.6699 157.105 68.6699Z" fill="url(#paint7_linear_96_405)"/>
<path d="M53.1589 98.5196C61.8258 96.0727 57.1224 80.434 57.1224 69.3054C57.1224 57.9374 67.207 44.1638 58.3871 42.5298C51.9148 53.221 48.0298 64.9604 48.0298 76.5512C48.0298 84.5479 49.8855 91.8969 53.1589 98.5196Z" fill="url(#paint8_linear_96_405)"/>
<path d="M193.95 42.5298C185.135 44.1638 195.215 57.9374 195.215 69.3054C195.215 80.434 190.516 96.0727 199.179 98.5196C202.452 91.901 204.308 84.5521 204.308 76.5512C204.308 64.9604 200.423 53.221 193.95 42.5298Z" fill="url(#paint9_linear_96_405)"/>
<path d="M193.95 42.5298C185.135 44.1638 195.215 57.9374 195.215 69.3054C195.215 80.434 190.516 96.0727 199.179 98.5196C202.452 91.901 204.308 84.5521 204.308 76.5512C204.308 64.9604 200.423 53.221 193.95 42.5298Z" fill="url(#paint10_radial_96_405)"/>
<path d="M58.3913 42.5298C67.207 44.1638 57.1266 57.9374 57.1266 69.3054C57.1266 80.434 61.8258 96.0727 53.163 98.5196C49.8897 91.901 48.0339 84.5521 48.0339 76.5512C48.0339 64.9604 51.919 53.221 58.3913 42.5298Z" fill="url(#paint11_radial_96_405)"/>
</g>
</g>
<defs>
<linearGradient id="paint0_linear_96_405" x1="128.987" y1="143.393" x2="128.987" y2="362.64" gradientUnits="userSpaceOnUse">
<stop stop-color="white"/>
<stop offset="1" stop-color="#B3B3B3"/>
</linearGradient>
<linearGradient id="paint1_linear_96_405" x1="88.7982" y1="167.256" x2="88.7982" y2="211.098" gradientUnits="userSpaceOnUse">
<stop stop-color="#29ABE2"/>
<stop offset="1" stop-color="#155671"/>
</linearGradient>
<linearGradient id="paint2_linear_96_405" x1="169.177" y1="6.43179e-05" x2="169.177" y2="6.43179e-05" gradientUnits="userSpaceOnUse">
<stop stop-color="#29ABE2"/>
<stop offset="1" stop-color="#155671"/>
</linearGradient>
<radialGradient id="paint3_radial_96_405" cx="0" cy="0" r="1" gradientUnits="userSpaceOnUse" gradientTransform="translate(123.284 210.532) rotate(180) scale(48.6657 49.0874)">
<stop stop-color="#155671"/>
<stop offset="1" stop-color="#29ABE2"/>
</radialGradient>
<radialGradient id="paint4_radial_96_405" cx="0" cy="0" r="1" gradientUnits="userSpaceOnUse" gradientTransform="translate(106.008 26.0287) scale(172.136 171.856)">
<stop offset="0.36" stop-color="#F7F9F8"/>
<stop offset="0.46" stop-color="#F3F5F4"/>
<stop offset="0.54" stop-color="#EAEBEB"/>
<stop offset="0.6" stop-color="#DADBDA"/>
<stop offset="0.67" stop-color="#C3C3C3"/>
<stop offset="0.71" stop-color="#B0AFAF"/>
</radialGradient>
<linearGradient id="paint5_linear_96_405" x1="87.9176" y1="-32.4989" x2="137.634" y2="93.1159" gradientUnits="userSpaceOnUse">
<stop stop-color="#003752"/>
<stop offset="1"/>
</linearGradient>
<linearGradient id="paint6_linear_96_405" x1="99.5109" y1="53.2211" x2="98.7693" y2="7.90185" gradientUnits="userSpaceOnUse">
<stop stop-color="#01F5DB"/>
<stop offset="0.27" stop-color="#0EC4CD"/>
<stop offset="1" stop-color="#303EA9"/>
</linearGradient>
<linearGradient id="paint7_linear_96_405" x1="157.125" y1="52.5031" x2="156.384" y2="7.18387" gradientUnits="userSpaceOnUse">
<stop stop-color="#01F5DB"/>
<stop offset="0.27" stop-color="#0EC4CD"/>
<stop offset="1" stop-color="#303EA9"/>
</linearGradient>
<linearGradient id="paint8_linear_96_405" x1="48.0339" y1="70.5226" x2="62.0077" y2="70.5226" gradientUnits="userSpaceOnUse">
<stop stop-color="#003752"/>
<stop offset="1"/>
</linearGradient>
<linearGradient id="paint9_linear_96_405" x1="190.334" y1="70.5226" x2="204.308" y2="70.5226" gradientUnits="userSpaceOnUse">
<stop stop-color="#003752"/>
<stop offset="1"/>
</linearGradient>
<radialGradient id="paint10_radial_96_405" cx="0" cy="0" r="1" gradientUnits="userSpaceOnUse" gradientTransform="translate(197.319 70.5226) scale(20.4337 20.4004)">
<stop stop-color="#01F5DB"/>
<stop offset="1" stop-color="#01F5DB" stop-opacity="0"/>
</radialGradient>
<radialGradient id="paint11_radial_96_405" cx="0" cy="0" r="1" gradientUnits="userSpaceOnUse" gradientTransform="translate(54.9981 70.5226) rotate(180) scale(20.4337 20.4004)">
<stop stop-color="#01F5DB"/>
<stop offset="1" stop-color="#01F5DB" stop-opacity="0"/>
</radialGradient>
<clipPath id="clip0_96_405">
<rect width="258" height="394" fill="white"/>
</clipPath>
<clipPath id="clip1_96_405">
<rect width="258" height="394" fill="white"/>
</clipPath>
</defs>
</svg>
