<svg width="24" height="24" viewBox="0 0 24 24" fill="none" xmlns="http://www.w3.org/2000/svg">
<g clip-path="url(#clip0_51_11703)">
<path d="M23.135 19.68L15.4634 8.369V2.962H17.2456V0H6.3632V2.965H8.16007V8.372L0.473806 19.68C0.186406 20.1012 0.0231474 20.589 0.00130171 21.0919C-0.020544 21.5947 0.0998353 22.0938 0.349705 22.5365C0.599574 22.9791 0.969642 23.3488 1.42076 23.6064C1.87188 23.8641 2.38727 24 2.91241 24H20.687C21.2131 23.9992 21.7292 23.8623 22.1809 23.6037C22.6325 23.3452 23.0029 22.9745 23.253 22.531C23.5031 22.0874 23.6236 21.5873 23.6017 21.0836C23.5798 20.5799 23.4164 20.0911 23.1288 19.669L23.1361 19.68H23.135ZM22.1907 21.982C22.0447 22.2404 21.8286 22.4561 21.5652 22.6065C21.3018 22.7568 21.0009 22.8361 20.6943 22.836H2.91241C2.60456 22.8364 2.30233 22.757 2.03775 22.6062C1.77317 22.4554 1.5561 22.2388 1.40955 21.9793C1.26301 21.7199 1.19245 21.4272 1.20535 21.1325C1.21826 20.8377 1.31414 20.5518 1.48285 20.305L1.47868 20.311L9.35589 8.711V2.96H14.2456V8.714L22.1145 20.314C22.2919 20.565 22.3983 20.875 22.3983 21.209C22.3983 21.494 22.3211 21.762 22.1855 21.994L22.1896 21.986L22.1907 21.982Z" fill="#37474F"/>
<path d="M15.0386 12.3511H8.57841L2.67754 21.0491C2.64729 21.0931 2.63014 21.1442 2.62793 21.1969C2.62572 21.2496 2.63855 21.3019 2.66502 21.3481L2.66397 21.3471C2.71615 21.4341 2.81215 21.4921 2.92276 21.4931H20.6953C20.7479 21.4934 20.7996 21.4801 20.845 21.4545C20.8903 21.429 20.9277 21.3922 20.953 21.3481L20.9541 21.3471C20.9813 21.3012 20.9945 21.2489 20.9921 21.1962C20.9897 21.1435 20.9718 21.0925 20.9405 21.0491L20.9415 21.0501L15.0386 12.3511Z" fill="#37474F"/>
</g>
<defs>
<clipPath id="clip0_51_11703">
<rect width="24" height="24" fill="white"/>
</clipPath>
</defs>
</svg>
