<svg width="315" height="378" viewBox="0 0 315 378" fill="none" xmlns="http://www.w3.org/2000/svg">
<g opacity="0.3">
<path d="M270.129 96.3345L270.129 121.848L248.087 134.608L226.044 121.848L226.044 96.3345L248.087 83.5748L270.129 96.3345Z" stroke="white" stroke-opacity="0.2" stroke-miterlimit="10"/>
<path d="M248.087 134.453L248.087 159.967L226.044 172.721L204.001 159.967L204.001 134.453L226.044 121.693L248.087 134.453Z" stroke="white" stroke-opacity="0.2" stroke-miterlimit="10"/>
<path d="M204.001 159.961L204.001 185.475L181.958 198.235L159.916 185.475L159.916 159.961L181.958 147.207L204.001 159.961Z" stroke="white" stroke-opacity="0.2" stroke-miterlimit="10"/>
<path d="M204.001 108.933L204.001 134.453L181.958 147.207L159.916 134.453L159.916 108.933L181.958 96.1792L204.001 108.933Z" stroke="white" stroke-opacity="0.2" stroke-miterlimit="10"/>
<path d="M181.958 147.362L181.958 172.882L159.916 185.636L137.873 172.882L137.873 147.362L159.916 134.608L181.958 147.362Z" stroke="white" stroke-opacity="0.2" stroke-miterlimit="10"/>
<path d="M159.916 159.961L159.916 185.475L137.873 198.235L115.83 185.475L115.83 159.961L137.873 147.207L159.916 159.961Z" stroke="white" stroke-opacity="0.2" stroke-miterlimit="10"/>
<path d="M181.958 121.848L181.958 147.362L159.916 160.122L137.873 147.362L137.873 121.848L159.916 109.094L181.958 121.848Z" stroke="white" stroke-opacity="0.2" stroke-miterlimit="10"/>
<path d="M270.129 198.079L270.129 223.599L248.087 236.353L226.044 223.599L226.044 198.079L248.087 185.325L270.129 198.079Z" stroke="white" stroke-opacity="0.2" stroke-miterlimit="10"/>
<path d="M248.087 185.475L248.087 210.994L226.044 223.748L204.001 210.994L204.001 185.475L226.044 172.721L248.087 185.475Z" stroke="white" stroke-opacity="0.2" stroke-miterlimit="10"/>
<path d="M226.044 198.396L226.044 223.909L204.001 236.664L181.958 223.909L181.958 198.396L204.001 185.636L226.044 198.396Z" stroke="white" stroke-opacity="0.2" stroke-miterlimit="10"/>
<path d="M226.044 147.362L226.044 172.882L204.001 185.636L181.958 172.882L181.958 147.362L204.001 134.608L226.044 147.362Z" stroke="white" stroke-opacity="0.2" stroke-miterlimit="10"/>
<path d="M159.916 108.933L159.916 134.453L137.873 147.207L115.83 134.453L115.83 108.933L137.873 96.1792L159.916 108.933Z" stroke="white" stroke-opacity="0.2" stroke-miterlimit="10"/>
<path d="M137.873 96.3345L137.873 121.848L115.83 134.608L93.7874 121.848L93.7874 96.3345L115.83 83.5748L137.873 96.3345Z" stroke="white" stroke-opacity="0.2" stroke-miterlimit="10"/>
<path d="M248.087 83.4195L248.087 108.933L226.044 121.693L204.001 108.933L204.001 83.4195L226.044 70.6653L248.087 83.4195Z" stroke="white" stroke-opacity="0.2" stroke-miterlimit="10"/>
<path d="M204.001 83.4195L204.001 108.933L181.958 121.693L159.916 108.933L159.916 83.4195L181.958 70.6653L204.001 83.4195Z" stroke="white" stroke-opacity="0.2" stroke-miterlimit="10"/>
<path d="M292.172 57.9056L292.172 83.4195L270.129 96.1792L248.087 83.4195L248.087 57.9056L270.129 45.1459L292.172 57.9056Z" stroke="white" stroke-opacity="0.2" stroke-miterlimit="10"/>
<path d="M270.129 45.3068L270.129 70.8207L248.087 83.5748L226.044 70.8207L226.044 45.3068L248.087 32.5471L270.129 45.3068Z" stroke="white" stroke-opacity="0.2" stroke-miterlimit="10"/>
<path d="M292.172 108.933L292.172 134.453L270.129 147.207L248.087 134.453L248.087 108.933L270.129 96.1792L292.172 108.933Z" stroke="white" stroke-opacity="0.2" stroke-miterlimit="10"/>
<path d="M314.215 147.362L314.215 172.882L292.172 185.636L270.129 172.882L270.129 147.362L292.172 134.608L314.215 147.362Z" stroke="white" stroke-opacity="0.2" stroke-miterlimit="10"/>
<path d="M115.83 83.4195L115.83 108.933L93.7874 121.693L71.7447 108.933L71.7447 83.4195L93.7874 70.6653L115.83 83.4195Z" stroke="white" stroke-opacity="0.2" stroke-miterlimit="10"/>
<path d="M292.172 134.453L292.172 159.967L270.129 172.721L248.087 159.967L248.087 134.453L270.129 121.693L292.172 134.453Z" stroke="white" stroke-opacity="0.2" stroke-miterlimit="10"/>
<path d="M248.087 57.9056L248.087 83.4195L226.044 96.1792L204.001 83.4195L204.001 57.9056L226.044 45.1459L248.087 57.9056Z" stroke="white" stroke-opacity="0.2" stroke-miterlimit="10"/>
</g>
<g opacity="0.3">
<path d="M115.769 236.741L115.769 262.255L93.7265 275.009L71.6838 262.255L71.6838 236.741L93.7265 223.981L115.769 236.741Z" stroke="white" stroke-opacity="0.2" stroke-miterlimit="10"/>
<path d="M93.7265 274.854L93.7265 300.373L71.6838 313.127L49.6411 300.373L49.6411 274.854L71.6838 262.1L93.7265 274.854Z" stroke="white" stroke-opacity="0.2" stroke-miterlimit="10"/>
<path d="M49.6411 300.368L49.6411 325.882L27.5983 338.641L5.55562 325.882L5.55561 300.368L27.5983 287.608L49.6411 300.368Z" stroke="white" stroke-opacity="0.2" stroke-miterlimit="10"/>
<path d="M49.6411 249.34L49.6411 274.854L27.5983 287.614L5.55561 274.854L5.55561 249.34L27.5983 236.586L49.6411 249.34Z" stroke="white" stroke-opacity="0.2" stroke-miterlimit="10"/>
<path d="M27.5983 287.769L27.5983 313.283L5.55563 326.042L-16.4871 313.283L-16.4871 287.769L5.55562 275.009L27.5983 287.769Z" stroke="white" stroke-opacity="0.2" stroke-miterlimit="10"/>
<path d="M5.55561 300.368L5.55561 325.882L-16.4871 338.641L-38.5299 325.882L-38.5299 300.368L-16.4871 287.608L5.55561 300.368Z" stroke="white" stroke-opacity="0.2" stroke-miterlimit="10"/>
<path d="M27.5983 262.255L27.5983 287.769L5.55562 300.529L-16.4871 287.769L-16.4871 262.255L5.55562 249.495L27.5983 262.255Z" stroke="white" stroke-opacity="0.2" stroke-miterlimit="10"/>
<path d="M115.769 338.486L115.769 364L93.7265 376.759L71.6838 364L71.6838 338.486L93.7265 325.732L115.769 338.486Z" stroke="white" stroke-opacity="0.2" stroke-miterlimit="10"/>
<path d="M93.7265 325.882L93.7265 351.395L71.6838 364.155L49.6411 351.395L49.6411 325.882L71.6838 313.122L93.7265 325.882Z" stroke="white" stroke-opacity="0.2" stroke-miterlimit="10"/>
<path d="M71.6838 338.797L71.6838 364.316L49.6411 377.07L27.5983 364.316L27.5983 338.797L49.6411 326.042L71.6838 338.797Z" stroke="white" stroke-opacity="0.2" stroke-miterlimit="10"/>
<path d="M71.6838 287.769L71.6838 313.283L49.6411 326.042L27.5983 313.283L27.5983 287.769L49.6411 275.009L71.6838 287.769Z" stroke="white" stroke-opacity="0.2" stroke-miterlimit="10"/>
<path d="M5.55561 249.34L5.55561 274.854L-16.4871 287.614L-38.5299 274.854L-38.5299 249.34L-16.4871 236.586L5.55561 249.34Z" stroke="white" stroke-opacity="0.2" stroke-miterlimit="10"/>
<path d="M93.7265 223.826L93.7265 249.34L71.6838 262.1L49.6411 249.34L49.6411 223.826L71.6838 211.066L93.7265 223.826Z" stroke="white" stroke-opacity="0.2" stroke-miterlimit="10"/>
<path d="M49.6411 223.826L49.6411 249.34L27.5983 262.1L5.55561 249.34L5.55561 223.826L27.5983 211.066L49.6411 223.826Z" stroke="white" stroke-opacity="0.2" stroke-miterlimit="10"/>
<path d="M137.812 198.312L137.812 223.826L115.769 236.586L93.7265 223.826L93.7265 198.312L115.769 185.553L137.812 198.312Z" stroke="white" stroke-opacity="0.2" stroke-miterlimit="10"/>
<path d="M115.769 185.708L115.769 211.222L93.7265 223.981L71.6838 211.222L71.6838 185.708L93.7265 172.954L115.769 185.708Z" stroke="white" stroke-opacity="0.2" stroke-miterlimit="10"/>
<path d="M137.812 249.34L137.812 274.854L115.769 287.614L93.7265 274.854L93.7265 249.34L115.769 236.586L137.812 249.34Z" stroke="white" stroke-opacity="0.2" stroke-miterlimit="10"/>
<path d="M159.855 287.769L159.855 313.283L137.812 326.042L115.769 313.283L115.769 287.769L137.812 275.009L159.855 287.769Z" stroke="white" stroke-opacity="0.2" stroke-miterlimit="10"/>
<path d="M137.812 274.854L137.812 300.373L115.769 313.127L93.7265 300.373L93.7265 274.854L115.769 262.1L137.812 274.854Z" stroke="white" stroke-opacity="0.2" stroke-miterlimit="10"/>
<path d="M93.7265 198.312L93.7265 223.826L71.6838 236.586L49.6411 223.826L49.6411 198.312L71.6838 185.553L93.7265 198.312Z" stroke="white" stroke-opacity="0.2" stroke-miterlimit="10"/>
</g>
<g opacity="0.3">
<path d="M5.61646 19.7874L5.61647 45.3068L-16.4263 58.061L-38.469 45.3068L-38.469 19.7874L-16.4263 7.03324L5.61646 19.7874Z" stroke="white" stroke-opacity="0.2" stroke-miterlimit="10"/>
<path d="M5.61647 121.538L5.61647 147.052L-16.4263 159.811L-38.469 147.052L-38.469 121.538L-16.4263 108.778L5.61647 121.538Z" stroke="white" stroke-opacity="0.2" stroke-miterlimit="10"/>
<path d="M27.6592 -18.6415L27.6592 6.87793L5.61646 19.6321L-16.4263 6.87794L-16.4263 -18.6415L5.61645 -31.3956L27.6592 -18.6415Z" stroke="white" stroke-opacity="0.2" stroke-miterlimit="10"/>
<path d="M5.61646 -31.2403L5.61646 -5.72644L-16.4263 7.03327L-38.469 -5.72643L-38.469 -31.2403L-16.4263 -44L5.61646 -31.2403Z" stroke="white" stroke-opacity="0.2" stroke-miterlimit="10"/>
<path d="M27.6592 32.3918L27.6592 57.9056L5.61646 70.6653L-16.4263 57.9056L-16.4263 32.3918L5.61646 19.6321L27.6592 32.3918Z" stroke="white" stroke-opacity="0.2" stroke-miterlimit="10"/>
<path d="M49.7019 70.8207L49.7019 96.3345L27.6592 109.094L5.61647 96.3345L5.61646 70.8207L27.6592 58.061L49.7019 70.8207Z" stroke="white" stroke-opacity="0.2" stroke-miterlimit="10"/>
<path d="M27.6592 57.9056L27.6592 83.4195L5.61647 96.1792L-16.4263 83.4195L-16.4263 57.9056L5.61646 45.1459L27.6592 57.9056Z" stroke="white" stroke-opacity="0.2" stroke-miterlimit="10"/>
</g>
<path d="M226.044 96.3345L226.044 121.848L204.001 134.608L181.958 121.848L181.958 96.3345L204.001 83.5748L226.044 96.3345Z" stroke="white" stroke-opacity="0.2" stroke-miterlimit="10"/>
<path d="M204.001 134.453L204.001 159.967L181.958 172.721L159.916 159.967L159.916 134.453L181.958 121.693L204.001 134.453Z" stroke="white" stroke-opacity="0.2" stroke-miterlimit="10"/>
<path d="M159.916 159.961L159.916 185.475L137.873 198.235L115.83 185.475L115.83 159.961L137.873 147.207L159.916 159.961Z" stroke="white" stroke-opacity="0.2" stroke-miterlimit="10"/>
<path d="M159.916 108.933L159.916 134.453L137.873 147.207L115.83 134.453L115.83 108.933L137.873 96.1792L159.916 108.933Z" stroke="white" stroke-opacity="0.2" stroke-miterlimit="10"/>
<path d="M137.873 147.362L137.873 172.882L115.83 185.636L93.7874 172.882L93.7874 147.362L115.83 134.608L137.873 147.362Z" stroke="white" stroke-opacity="0.2" stroke-miterlimit="10"/>
<path d="M115.83 159.961L115.83 185.475L93.7874 198.235L71.7447 185.475L71.7447 159.961L93.7874 147.207L115.83 159.961Z" stroke="white" stroke-opacity="0.2" stroke-miterlimit="10"/>
<path d="M137.873 121.848L137.873 147.362L115.83 160.122L93.7874 147.362L93.7874 121.848L115.83 109.094L137.873 121.848Z" stroke="white" stroke-opacity="0.2" stroke-miterlimit="10"/>
<path d="M226.044 198.079L226.044 223.599L204.001 236.353L181.958 223.599L181.958 198.079L204.001 185.325L226.044 198.079Z" stroke="white" stroke-opacity="0.2" stroke-miterlimit="10"/>
<path d="M204.001 185.475L204.001 210.994L181.958 223.748L159.916 210.994L159.916 185.475L181.958 172.721L204.001 185.475Z" stroke="white" stroke-opacity="0.2" stroke-miterlimit="10"/>
<path d="M181.958 198.396L181.958 223.909L159.916 236.664L137.873 223.909L137.873 198.396L159.916 185.636L181.958 198.396Z" stroke="white" stroke-opacity="0.2" stroke-miterlimit="10"/>
<path d="M181.958 147.362L181.958 172.882L159.916 185.636L137.873 172.882L137.873 147.362L159.916 134.608L181.958 147.362Z" stroke="white" stroke-opacity="0.2" stroke-miterlimit="10"/>
<path d="M115.83 108.933L115.83 134.453L93.7874 147.207L71.7447 134.453L71.7447 108.933L93.7874 96.1792L115.83 108.933Z" stroke="white" stroke-opacity="0.2" stroke-miterlimit="10"/>
<path d="M93.7874 96.3345L93.7874 121.848L71.7447 134.608L49.7019 121.848L49.7019 96.3345L71.7447 83.5748L93.7874 96.3345Z" stroke="white" stroke-opacity="0.2" stroke-miterlimit="10"/>
<path d="M204.001 83.4195L204.001 108.933L181.958 121.693L159.916 108.933L159.916 83.4195L181.958 70.6653L204.001 83.4195Z" stroke="white" stroke-opacity="0.2" stroke-miterlimit="10"/>
<path d="M159.916 83.4195L159.916 108.933L137.873 121.693L115.83 108.933L115.83 83.4195L137.873 70.6653L159.916 83.4195Z" stroke="white" stroke-opacity="0.2" stroke-miterlimit="10"/>
<path d="M248.087 57.9056L248.087 83.4195L226.044 96.1792L204.001 83.4195L204.001 57.9056L226.044 45.1459L248.087 57.9056Z" stroke="white" stroke-opacity="0.2" stroke-miterlimit="10"/>
<path d="M226.044 45.3068L226.044 70.8207L204.001 83.5748L181.958 70.8207L181.958 45.3068L204.001 32.5471L226.044 45.3068Z" stroke="white" stroke-opacity="0.2" stroke-miterlimit="10"/>
<path d="M248.087 108.933L248.087 134.453L226.044 147.207L204.001 134.453L204.001 108.933L226.044 96.1792L248.087 108.933Z" stroke="white" stroke-opacity="0.2" stroke-miterlimit="10"/>
<path d="M270.129 147.362L270.129 172.882L248.087 185.636L226.044 172.882L226.044 147.362L248.087 134.608L270.129 147.362Z" stroke="white" stroke-opacity="0.2" stroke-miterlimit="10"/>
<path d="M71.7447 83.4195L71.7447 108.933L49.7019 121.693L27.6592 108.933L27.6592 83.4195L49.7019 70.6653L71.7447 83.4195Z" stroke="white" stroke-opacity="0.2" stroke-miterlimit="10"/>
<path d="M248.087 134.453L248.087 159.967L226.044 172.721L204.001 159.967L204.001 134.453L226.044 121.693L248.087 134.453Z" stroke="white" stroke-opacity="0.2" stroke-miterlimit="10"/>
<path d="M204.001 57.9056L204.001 83.4195L181.958 96.1792L159.916 83.4195L159.916 57.9056L181.958 45.1459L204.001 57.9056Z" stroke="white" stroke-opacity="0.2" stroke-miterlimit="10"/>
</svg>
