<svg width="258" height="249" viewBox="0 0 258 249" fill="none" xmlns="http://www.w3.org/2000/svg">
<g clip-path="url(#clip0_248_1014)">
<g clip-path="url(#clip1_248_1014)">
<path d="M222.526 213.577L219.584 262.191C219.584 283.384 212.632 302.866 200.72 318.244C200.51 318.515 200.303 318.783 200.084 319.051C198.551 320.988 196.935 322.859 195.24 324.655C183.229 337.416 167.417 346.564 149.256 350.322C144.391 351.327 139.362 351.95 134.191 352.152C133.443 352.18 132.691 352.205 131.943 352.213C131.455 352.222 130.963 352.226 130.471 352.226C129.98 352.226 129.488 352.226 129.004 352.213C128.252 352.201 127.5 352.18 126.756 352.152C121.594 351.954 116.568 351.332 111.712 350.326C93.5511 346.568 77.734 337.433 65.7234 324.676C64.0289 322.879 62.417 321.013 60.8836 319.08C60.6687 318.816 60.4579 318.548 60.2513 318.281C48.3192 302.894 41.3592 283.4 41.3592 262.196L38.4165 213.581C38.4165 191.87 48.0175 172.359 63.2973 158.885C63.4048 158.786 63.5164 158.683 63.628 158.588C64.5124 157.818 65.4176 157.064 66.3434 156.334L81.8133 149.836L89.0874 146.779L93.2452 145.032L103.888 140.565C104.251 140.515 104.615 140.47 104.983 140.433C107.847 140.107 110.757 139.943 113.712 139.943H147.239C150.198 139.943 153.12 140.112 155.993 140.433C156.365 140.474 156.733 140.52 157.1 140.569H157.109L167.731 145.027L171.888 146.775L179.163 149.832L194.583 156.314C195.521 157.055 196.439 157.818 197.34 158.605C197.451 158.704 197.563 158.802 197.674 158.901C212.938 172.376 222.535 191.878 222.535 213.577H222.526Z" fill="#E6E6E6"/>
<path d="M219.034 216.255L216.203 263.93C216.203 312.203 180.117 371.613 131.939 372.396C131.451 372.404 130.959 372.408 130.467 372.408C129.975 372.408 129.484 372.408 128.996 372.396C80.8172 371.613 44.7318 312.203 44.7318 263.93L41.9006 216.255C41.9006 198.999 47.9721 183.155 58.098 170.736C58.7179 169.977 59.3544 169.227 60.0033 168.494C73.2744 153.499 92.6955 144.038 114.336 144.038H146.594C168.231 144.038 187.652 153.499 200.927 168.494C201.576 169.232 202.212 169.977 202.832 170.736C212.958 183.155 219.03 198.999 219.03 216.255H219.034Z" fill="url(#paint0_linear_248_1014)"/>
<path d="M122.453 209.502L121.499 212.275C99.0893 204.619 80.2716 190.716 68.4387 180.394C64.4752 176.941 61.0034 173.645 58.1021 170.735C58.722 169.977 59.3585 169.227 60.0074 168.494C62.917 171.411 66.4136 174.737 70.4267 178.231C82.0529 188.363 100.519 202.006 122.453 209.502Z" fill="url(#paint1_linear_248_1014)"/>
<path d="M202.837 170.735C199.935 173.645 196.463 176.941 192.5 180.394C180.663 190.712 161.849 204.619 139.44 212.275L138.485 209.502C160.419 202.011 178.886 188.363 190.512 178.231C194.525 174.737 198.022 171.411 200.931 168.494C201.58 169.231 202.217 169.977 202.837 170.735Z" fill="url(#paint2_linear_248_1014)"/>
<path d="M69.1498 243.946L191.789 243.946V180.6H69.1498L69.1498 243.946Z" fill="url(#paint3_radial_248_1014)"/>
<path d="M190.805 181.585H70.1375V242.965H190.805V181.585Z" fill="black"/>
<path d="M73.4026 212.275H189.061" stroke="#DDDDDD" stroke-width="4" stroke-miterlimit="10"/>
<path d="M258 394H204.436L199.241 359.803V359.783V359.775L184.837 264.94L181.204 241.028L177.299 215.299L196.174 156.693V156.68C196.174 156.68 215.025 161.926 228.341 193.143C229.995 197.008 231.561 201.269 232.991 205.97C235.822 215.246 238.141 226.223 239.592 239.203C244.183 280.235 251.92 344.252 258.008 394.008L258 394Z" fill="white"/>
<path d="M199.749 394H146.342L147.351 362.605L147.776 349.399L147.781 349.284L147.925 344.73L148.62 322.986L150.215 273.206L151.182 243.023L151.215 242.042L151.819 223.174L152.017 216.96L152.389 205.398L152.476 202.616L152.496 202.081L152.674 196.419L153.178 180.662L153.216 179.681L154.323 145.114L154.369 143.7L154.414 142.254L154.505 139.506L154.513 139.18L155.609 139.642H155.617L166.239 144.104L170.396 145.851L177.671 148.905L193.091 155.386L196.166 156.68V156.688L196.187 157.974L196.278 164.213L196.377 170.583L196.435 174.572L197.133 220.87L197.48 244.098L198.563 315.252L198.604 318.128L199.237 359.709V359.783V360.026L199.749 394Z" fill="white"/>
<path opacity="0.5" d="M199.237 362.152V236.706" stroke="black" stroke-width="2" stroke-linecap="round" stroke-linejoin="round"/>
<path opacity="0.5" d="M155.468 140.219L183.779 170.999L164.094 184.032L177.29 199.349L148.624 322.986" stroke="black" stroke-width="2" stroke-linecap="round" stroke-linejoin="round"/>
<path d="M80.7056 215.295L76.7999 241.024L73.1711 264.936L58.7634 359.77V359.779L53.564 394H0C6.08795 344.244 13.8208 280.227 18.4168 239.195C19.8716 226.215 22.1861 215.238 25.0172 205.962C26.4472 201.265 28.0136 197 29.6669 193.135C42.9876 161.917 61.8342 156.672 61.8342 156.672L80.7097 215.291L80.7056 215.295Z" fill="white"/>
<path d="M111.654 394H58.2468L58.7635 359.783V359.709L59.3958 318.153L59.4371 315.285L60.5159 244.098L60.863 220.87L61.5615 174.596L61.6235 170.608L61.7186 164.192L61.8136 157.958L61.8302 156.68L64.8597 155.403L80.3296 148.905L87.6037 145.851L91.7574 144.104L102.4 139.633L103.483 139.18L103.495 139.506L103.586 142.254L103.632 143.696L103.673 145.114L104.785 179.681L104.818 180.662L105.322 196.419L105.508 202.093L105.52 202.616L105.611 205.41L105.979 216.96L106.178 223.174L106.785 242.042L106.814 243.023L107.781 273.206L109.376 322.986L110.075 344.73L110.22 349.288L110.224 349.403L110.649 362.605L111.654 394Z" fill="white"/>
<path opacity="0.5" d="M58.7634 362.152V236.706" stroke="black" stroke-width="2" stroke-linecap="round" stroke-linejoin="round"/>
<path opacity="0.5" d="M102.532 140.219L74.2209 170.999L93.9066 184.032L80.7098 199.349L109.376 322.986" stroke="black" stroke-width="2" stroke-linecap="round" stroke-linejoin="round"/>
<g opacity="0.05">
<path d="M109.041 135.764V138.574C98.7089 140.264 91.0504 149.292 91.0504 160.512V225.947C95.8075 226.61 99.4694 230.677 99.4694 235.601C99.4694 240.987 95.0883 245.355 89.6865 245.355C89.6121 245.355 89.5377 245.351 89.4592 245.347C89.3848 245.347 89.3104 245.355 89.2318 245.355C83.83 245.355 79.449 240.987 79.449 235.601C79.449 230.677 83.1108 226.606 87.8721 225.947V160.512C87.8721 147.599 96.9482 137.272 109.037 135.764H109.041Z" fill="black"/>
</g>
<path d="M86.7521 245.359C92.155 245.359 96.535 240.992 96.535 235.606C96.535 230.219 92.155 225.852 86.7521 225.852C81.3492 225.852 76.9692 230.219 76.9692 235.606C76.9692 240.992 81.3492 245.359 86.7521 245.359Z" fill="#E1F4FF"/>
<path d="M87.2025 245.359C92.6055 245.359 96.9854 240.992 96.9854 235.606C96.9854 230.219 92.6055 225.852 87.2025 225.852C81.7996 225.852 77.4197 230.219 77.4197 235.606C77.4197 240.992 81.7996 245.359 87.2025 245.359Z" fill="#C3E9FE"/>
<path d="M92.1206 236.855C92.8206 233.899 90.9838 230.936 88.018 230.238C85.0522 229.54 82.0805 231.371 81.3805 234.328C80.6805 237.285 82.5173 240.248 85.4831 240.946C88.4489 241.644 91.4206 239.812 92.1206 236.855Z" fill="#69C8FD"/>
<path d="M109.042 135.579V138.29C97.2582 138.603 88.1119 148.25 88.1119 160.508V232.902H85.3923V160.508C85.3923 146.725 95.7332 135.888 109.042 135.579Z" fill="#69C8FD"/>
<path d="M109.041 135.595V138.311C97.4773 138.855 88.5664 148.41 88.5664 160.512V232.907H85.8469V160.512C85.8469 146.886 95.9522 136.143 109.041 135.595Z" fill="#05A3FC"/>
<path d="M92.5754 236.859C93.2754 233.902 91.4386 230.939 88.4728 230.242C85.507 229.544 82.5353 231.375 81.8353 234.332C81.1353 237.289 82.9721 240.251 85.9379 240.949C88.9037 241.647 91.8754 239.816 92.5754 236.859Z" fill="#05A3FC"/>
<path d="M87.2026 239.495C89.3574 239.495 91.1042 237.754 91.1042 235.606C91.1042 233.457 89.3574 231.716 87.2026 231.716C85.0478 231.716 83.301 233.457 83.301 235.606C83.301 237.754 85.0478 239.495 87.2026 239.495Z" fill="#CDDCE5"/>
<path d="M86.7522 239.495C88.9069 239.495 90.6537 237.754 90.6537 235.606C90.6537 233.457 88.9069 231.716 86.7522 231.716C84.5974 231.716 82.8506 233.457 82.8506 235.606C82.8506 237.754 84.5974 239.495 86.7522 239.495Z" fill="#03527E"/>
<path opacity="0.05" d="M182.94 173.748H180.237V160.257C180.237 153.899 177.493 147.858 172.508 143.247C167.908 138.991 161.767 136.473 155.65 136.267V139.003C160.994 139.316 166.218 141.55 170.206 145.237C174.629 149.329 177.063 154.665 177.063 160.257V173.748H174.36C167.222 173.748 161.419 179.537 161.419 186.649V194.449H162.213V225.395C162.213 231.213 166.478 236.059 172.054 236.99V237.175C172.054 237.785 172.55 238.276 173.157 238.276H175.087C175.699 238.276 176.191 237.781 176.191 237.175V236.009C176.191 235.399 175.695 234.909 175.087 234.909H173.157C172.616 234.909 172.165 235.296 172.07 235.812C167.226 234.81 163.569 230.525 163.569 225.403V194.458H164.589V191.561C166.371 185.425 171.971 181.025 178.559 180.889H178.58C182.208 180.926 185.701 182.269 188.441 184.675C190.417 186.41 191.871 188.594 192.706 191V194.458H193.5V225.403C193.5 230.603 189.735 234.942 184.779 235.853C184.701 235.321 184.246 234.913 183.688 234.913H181.758C181.146 234.913 180.654 235.408 180.654 236.013V237.18C180.654 237.789 181.15 238.28 181.758 238.28H183.688C184.3 238.28 184.792 237.785 184.792 237.18V237.031C190.479 236.195 194.856 231.295 194.856 225.399V194.453H195.876V186.653C195.876 179.537 190.069 173.752 182.936 173.752L182.94 173.748ZM182.485 176.459C188.119 176.459 192.706 181.033 192.706 186.649V187.428C191.88 186.101 190.851 184.877 189.648 183.818C186.664 181.193 182.837 179.747 178.877 179.747C178.786 179.747 178.695 179.747 178.6 179.747H178.588C178.534 179.747 178.48 179.747 178.427 179.747C172.562 179.747 167.383 182.891 164.598 187.659V186.653C164.598 181.037 169.185 176.463 174.819 176.463H182.49L182.485 176.459Z" fill="#333333"/>
<path d="M180.464 237.155V236.026C186.342 236.026 191.128 231.258 191.128 225.395V194.227H192.26V225.395C192.26 231.881 186.97 237.155 180.464 237.155Z" fill="#E1F4FF"/>
<path d="M180.692 237.155V236.026C186.569 236.026 191.355 231.258 191.355 225.395V194.227H192.487V225.395C192.487 231.881 187.197 237.155 180.692 237.155Z" fill="#69C8FD"/>
<path d="M171.636 237.155C165.131 237.155 159.841 231.88 159.841 225.395V194H160.973V225.395C160.973 231.258 165.755 236.026 171.636 236.026V237.155Z" fill="#E1F4FF"/>
<path d="M171.864 237.155C165.358 237.155 160.068 231.88 160.068 225.395V194H161.2V225.395C161.2 231.258 165.982 236.026 171.864 236.026V237.155Z" fill="#69C8FD"/>
<path d="M177.41 160.261V175.256H174.691V160.261C174.691 154.669 172.256 149.333 167.834 145.242C163.845 141.55 158.559 139.329 153.215 139.015L153.277 136.292C159.299 136.609 165.197 139.106 169.685 143.255C174.67 147.866 177.414 153.907 177.414 160.265L177.41 160.261Z" fill="#E1F4FF"/>
<path d="M171.988 234.905H171.281C170.395 234.905 169.677 235.621 169.677 236.504V236.677C169.677 237.56 170.395 238.276 171.281 238.276H171.988C172.873 238.276 173.591 237.56 173.591 236.677V236.504C173.591 235.621 172.873 234.905 171.988 234.905Z" fill="#047ABD"/>
<path d="M172.215 234.905H171.508C170.623 234.905 169.905 235.621 169.905 236.504V236.677C169.905 237.56 170.623 238.276 171.508 238.276H172.215C173.101 238.276 173.819 237.56 173.819 236.677V236.504C173.819 235.621 173.101 234.905 172.215 234.905Z" fill="#05A3FC"/>
<path d="M180.82 234.905H180.113C179.227 234.905 178.51 235.621 178.51 236.504V236.677C178.51 237.56 179.227 238.276 180.113 238.276H180.82C181.706 238.276 182.423 237.56 182.423 236.677V236.504C182.423 235.621 181.706 234.905 180.82 234.905Z" fill="#047ABD"/>
<path d="M180.593 234.905H179.886C179 234.905 178.282 235.621 178.282 236.504V236.677C178.282 237.56 179 238.276 179.886 238.276H180.593C181.478 238.276 182.196 237.56 182.196 236.677V236.504C182.196 235.621 181.478 234.905 180.593 234.905Z" fill="#05A3FC"/>
<path d="M180.113 173.748H171.988C164.85 173.748 159.047 179.537 159.047 186.649V194.449H161.767V191.553C163.577 185.318 169.326 180.876 176.05 180.876C176.096 180.876 176.141 180.876 176.187 180.876H176.207C179.836 180.913 183.329 182.257 186.069 184.663C188.044 186.398 189.499 188.582 190.334 190.988V194.445H193.054V186.645C193.054 179.529 187.247 173.744 180.113 173.744V173.748ZM161.767 186.649C161.767 181.033 166.354 176.459 171.988 176.459H180.113C185.746 176.459 190.334 181.033 190.334 186.649V188.198C189.441 186.567 188.259 185.079 186.821 183.818C183.882 181.231 180.121 179.788 176.228 179.747H176.216C176.162 179.747 176.108 179.747 176.055 179.747C170.19 179.747 165.011 182.891 162.225 187.659C162.064 187.927 161.915 188.203 161.771 188.483V186.653L161.767 186.649Z" fill="#69C8FD"/>
<path d="M180.568 173.748H177.865V160.257C177.865 153.899 175.12 147.858 170.136 143.247C165.536 138.991 159.394 136.473 153.277 136.267L153.215 138.982C158.659 139.188 164.184 141.442 168.288 145.237C172.711 149.329 175.145 154.665 175.145 160.257V173.748H172.442C165.304 173.748 159.502 179.537 159.502 186.649V194.449H162.221V191.553C164.003 185.417 169.603 181.016 176.191 180.88H176.211C176.311 180.88 176.406 180.88 176.505 180.88C180.187 180.88 183.746 182.228 186.528 184.671C188.503 186.406 189.958 188.59 190.793 190.996V194.453H193.512V186.653C193.512 179.537 187.705 173.752 180.572 173.752L180.568 173.748ZM190.789 188.203C190.644 187.939 190.495 187.683 190.334 187.428C189.507 186.101 188.478 184.877 187.276 183.818C184.292 181.193 180.464 179.747 176.505 179.747C176.414 179.747 176.323 179.747 176.228 179.747H176.216C170.136 179.854 164.837 183.336 162.221 188.479V186.649C162.221 181.033 166.809 176.459 172.442 176.459H180.568C186.201 176.459 190.789 181.033 190.789 186.649V188.198V188.203Z" fill="#05A3FC"/>
<path d="M154.521 140.861C154.521 139.79 103.516 139.687 103.516 140.758L103.446 131.722H154.691L154.521 140.866V140.861Z" fill="#DDDDDD"/>
<path d="M207.205 76.4447C207.205 113.868 166.606 137.153 129.066 137.153C91.5301 137.153 50.9272 113.868 50.9272 76.4447C50.9272 39.0217 91.5301 0 129.066 0C166.602 0 207.205 39.0217 207.205 76.4447Z" fill="url(#paint4_radial_248_1014)"/>
<path d="M190.834 63.9841C190.834 97.9952 163.18 122.035 129.066 122.035C94.9522 122.035 67.2981 97.9911 67.2981 63.9841C67.2981 29.9771 94.9563 2.40637 129.066 2.40637C163.176 2.40637 190.834 29.9771 190.834 63.9882V63.9841Z" fill="url(#paint5_linear_248_1014)"/>
<path opacity="0.5" d="M190.834 63.9842C190.834 97.9953 163.18 122.035 129.066 122.035C94.9522 122.035 67.2981 97.9912 67.2981 63.9842C67.2981 29.973 94.9522 2.40234 129.066 2.40234C163.18 2.40234 190.834 29.973 190.834 63.9842Z" fill="url(#paint6_radial_248_1014)"/>
<path d="M56.0563 98.3826C64.7233 95.9391 60.0199 80.3222 60.0199 69.209C60.0199 57.8569 70.1045 44.1024 61.2846 42.4707C54.8123 53.1471 50.9272 64.8701 50.9272 76.4447C50.9272 84.4304 52.783 91.7691 56.0563 98.3826Z" fill="url(#paint7_linear_248_1014)"/>
<path d="M196.848 42.4707C188.032 44.1024 198.112 57.8569 198.112 69.209C198.112 80.3222 193.413 95.9391 202.076 98.3826C205.349 91.7732 207.205 84.4345 207.205 76.4447C207.205 64.8701 203.32 53.1471 196.848 42.4707Z" fill="url(#paint8_linear_248_1014)"/>
<path d="M196.848 42.4707C188.032 44.1024 198.112 57.8569 198.112 69.209C198.112 80.3222 193.413 95.9391 202.076 98.3826C205.349 91.7732 207.205 84.4345 207.205 76.4447C207.205 64.8701 203.32 53.1471 196.848 42.4707Z" fill="url(#paint9_radial_248_1014)"/>
<path d="M61.2888 42.4707C70.1045 44.1024 60.024 57.8569 60.024 69.209C60.024 80.3222 64.7233 95.9391 56.0605 98.3826C52.7871 91.7732 50.9314 84.4345 50.9314 76.4447C50.9314 64.8701 54.8164 53.1471 61.2888 42.4707Z" fill="url(#paint10_radial_248_1014)"/>
<path d="M117.378 47.4318C117.378 47.6955 109.042 47.9139 98.7545 47.9139C88.4715 47.9139 80.1311 47.6996 80.1311 47.4318C80.1311 47.1681 88.4674 46.9497 98.7545 46.9497C109.037 46.9497 117.378 47.164 117.378 47.4318Z" fill="#727272"/>
<path d="M182.882 47.4318C182.882 47.6955 174.546 47.9139 164.259 47.9139C153.976 47.9139 145.635 47.6996 145.635 47.4318C145.635 47.1681 153.972 46.9497 164.259 46.9497C174.542 46.9497 182.882 47.164 182.882 47.4318Z" fill="#727272"/>
</g>
</g>
<defs>
<linearGradient id="paint0_linear_248_1014" x1="130.471" y1="144.681" x2="130.471" y2="369.841" gradientUnits="userSpaceOnUse">
<stop stop-color="white"/>
<stop offset="1" stop-color="#B3B3B3"/>
</linearGradient>
<linearGradient id="paint1_linear_248_1014" x1="90.2777" y1="168.494" x2="90.2777" y2="212.275" gradientUnits="userSpaceOnUse">
<stop stop-color="#29ABE2"/>
<stop offset="1" stop-color="#155671"/>
</linearGradient>
<linearGradient id="paint2_linear_248_1014" x1="170.661" y1="1.29075e-05" x2="170.661" y2="1.29075e-05" gradientUnits="userSpaceOnUse">
<stop stop-color="#29ABE2"/>
<stop offset="1" stop-color="#155671"/>
</linearGradient>
<radialGradient id="paint3_radial_248_1014" cx="0" cy="0" r="1" gradientUnits="userSpaceOnUse" gradientTransform="translate(124.344 211.705) rotate(180) scale(48.6657 49.0191)">
<stop stop-color="#155671"/>
<stop offset="1" stop-color="#29ABE2"/>
</radialGradient>
<radialGradient id="paint4_radial_248_1014" cx="0" cy="0" r="1" gradientUnits="userSpaceOnUse" gradientTransform="translate(108.905 25.9925) scale(172.136 171.617)">
<stop offset="0.36" stop-color="#F7F9F8"/>
<stop offset="0.46" stop-color="#F3F5F4"/>
<stop offset="0.54" stop-color="#EAEBEB"/>
<stop offset="0.6" stop-color="#DADBDA"/>
<stop offset="0.67" stop-color="#C3C3C3"/>
<stop offset="0.71" stop-color="#B0AFAF"/>
</radialGradient>
<linearGradient id="paint5_linear_248_1014" x1="90.815" y1="-32.4536" x2="140.416" y2="93.0337" gradientUnits="userSpaceOnUse">
<stop stop-color="#003752"/>
<stop offset="1"/>
</linearGradient>
<radialGradient id="paint6_radial_248_1014" cx="0" cy="0" r="1" gradientUnits="userSpaceOnUse" gradientTransform="translate(129.066 62.2164) scale(60.8877 60.7041)">
<stop stop-color="#727272"/>
<stop offset="1" stop-color="#727272" stop-opacity="0"/>
</radialGradient>
<linearGradient id="paint7_linear_248_1014" x1="50.9314" y1="70.4246" x2="64.9051" y2="70.4246" gradientUnits="userSpaceOnUse">
<stop stop-color="#003752"/>
<stop offset="1"/>
</linearGradient>
<linearGradient id="paint8_linear_248_1014" x1="193.231" y1="70.4246" x2="207.205" y2="70.4246" gradientUnits="userSpaceOnUse">
<stop stop-color="#003752"/>
<stop offset="1"/>
</linearGradient>
<radialGradient id="paint9_radial_248_1014" cx="0" cy="0" r="1" gradientUnits="userSpaceOnUse" gradientTransform="translate(200.216 70.4246) scale(20.4337 20.3721)">
<stop stop-color="#727272"/>
<stop offset="1" stop-color="#727272" stop-opacity="0"/>
</radialGradient>
<radialGradient id="paint10_radial_248_1014" cx="0" cy="0" r="1" gradientUnits="userSpaceOnUse" gradientTransform="translate(57.8955 70.4246) rotate(180) scale(20.4337 20.3721)">
<stop stop-color="#727272"/>
<stop offset="1" stop-color="#727272" stop-opacity="0"/>
</radialGradient>
<clipPath id="clip0_248_1014">
<rect width="258" height="249" fill="white"/>
</clipPath>
<clipPath id="clip1_248_1014">
<rect width="258" height="394" fill="white"/>
</clipPath>
</defs>
</svg>
