<svg width="24" height="24" viewBox="0 0 24 24" fill="none" xmlns="http://www.w3.org/2000/svg">
<g clip-path="url(#clip0_51_11646)">
<path d="M12 8H6C5.80109 8 5.61032 8.07902 5.46967 8.21967C5.32902 8.36032 5.25 8.55109 5.25 8.75C5.25 8.94891 5.32902 9.13968 5.46967 9.28033C5.61032 9.42098 5.80109 9.5 6 9.5H12C12.1989 9.5 12.3897 9.42098 12.5303 9.28033C12.671 9.13968 12.75 8.94891 12.75 8.75C12.75 8.55109 12.671 8.36032 12.5303 8.21967C12.3897 8.07902 12.1989 8 12 8ZM12 11.55H6C5.90151 11.55 5.80398 11.5694 5.71299 11.6071C5.62199 11.6448 5.53931 11.7 5.46967 11.7697C5.40003 11.8393 5.34478 11.922 5.30709 12.013C5.2694 12.104 5.25 12.2015 5.25 12.3C5.25 12.3985 5.2694 12.496 5.30709 12.587C5.34478 12.678 5.40003 12.7607 5.46967 12.8303C5.53931 12.9 5.62199 12.9552 5.71299 12.9929C5.80398 13.0306 5.90151 13.05 6 13.05H12C12.0985 13.05 12.196 13.0306 12.287 12.9929C12.378 12.9552 12.4607 12.9 12.5303 12.8303C12.6 12.7607 12.6552 12.678 12.6929 12.587C12.7306 12.496 12.75 12.3985 12.75 12.3C12.75 12.2015 12.7306 12.104 12.6929 12.013C12.6552 11.922 12.6 11.8393 12.5303 11.7697C12.4607 11.7 12.378 11.6448 12.287 11.6071C12.196 11.5694 12.0985 11.55 12 11.55ZM9.51 15.1H6C5.80109 15.1 5.61032 15.179 5.46967 15.3197C5.32902 15.4603 5.25 15.6511 5.25 15.85C5.25 16.0489 5.32902 16.2397 5.46967 16.3803C5.61032 16.521 5.80109 16.6 6 16.6H9.51C9.70891 16.6 9.89968 16.521 10.0403 16.3803C10.181 16.2397 10.26 16.0489 10.26 15.85C10.26 15.6511 10.181 15.4603 10.0403 15.3197C9.89968 15.179 9.70891 15.1 9.51 15.1Z" fill="#37474F"/>
<path d="M8.58 21H3.5C3.36739 21 3.24021 20.9473 3.14645 20.8536C3.05268 20.7598 3 20.6326 3 20.5V5.50001C3 5.3674 3.05268 5.24022 3.14645 5.14646C3.24021 5.05269 3.36739 5.00001 3.5 5.00001H16.5C16.6326 5.00001 16.7598 5.05269 16.8536 5.14646C16.9473 5.24022 17 5.3674 17 5.50001V6.66001H18.87C19.2691 6.67753 19.6575 6.7944 20 7.00001V3.50001C20 3.10219 19.842 2.72065 19.5607 2.43935C19.2794 2.15805 18.8978 2.00001 18.5 2.00001H13.5C13.4581 1.99771 13.4173 1.98567 13.3808 1.96484C13.3444 1.94401 13.3133 1.91496 13.29 1.88001C12.9524 1.30777 12.4713 0.833492 11.8943 0.504006C11.3174 0.17452 10.6644 0.0012207 10 0.0012207C9.33558 0.0012207 8.68264 0.17452 8.10567 0.504006C7.5287 0.833492 7.04764 1.30777 6.71 1.88001C6.68674 1.91496 6.65564 1.94401 6.61919 1.96484C6.58273 1.98567 6.54192 1.99771 6.5 2.00001H1.5C1.10218 2.00001 0.720644 2.15805 0.43934 2.43935C0.158035 2.72065 0 3.10219 0 3.50001L0 22.5C0 22.8978 0.158035 23.2794 0.43934 23.5607C0.720644 23.842 1.10218 24 1.5 24H9.79C9.0958 23.2331 8.67095 22.2605 8.58 21.23C8.57559 21.1534 8.57559 21.0766 8.58 21Z" fill="#37474F"/>
<path d="M23.15 18.7899L19.62 14.9999V9.15991C19.6174 8.96181 19.5375 8.77254 19.3974 8.63245C19.2573 8.49235 19.0681 8.4125 18.87 8.40991H15.32C15.1211 8.40991 14.9303 8.48893 14.7896 8.62958C14.649 8.77023 14.57 8.961 14.57 9.15991V14.9999L11 18.7899C10.8746 18.9446 10.761 19.1083 10.66 19.2799C10.658 19.3166 10.658 19.3533 10.66 19.3899C10.5792 19.5367 10.5122 19.6907 10.46 19.8499C10.4661 19.866 10.4661 19.8838 10.46 19.8999C10.2435 20.6419 10.315 21.4383 10.66 22.1299V22.1899C10.7327 22.3296 10.8163 22.4633 10.91 22.5899L10.99 22.7099C11.1098 22.8497 11.2402 22.9801 11.38 23.0999V23.1599C11.9431 23.6244 12.65 23.8789 13.38 23.8799H20.65C21.474 23.8947 22.271 23.586 22.87 23.0199C23.1731 22.7412 23.4176 22.4048 23.5893 22.0305C23.761 21.6562 23.8564 21.2515 23.87 20.8399C23.87 20.8399 23.87 20.7599 23.87 20.7099C23.8547 20.0068 23.6008 19.3297 23.15 18.7899ZM16.07 15.3399V9.90991H18.12V15.3399C18.1194 15.5321 18.1907 15.7176 18.32 15.8599L20.84 18.5299H13.35L15.86 15.8599C15.992 15.7186 16.0669 15.5333 16.07 15.3399Z" fill="#37474F"/>
</g>
<defs>
<clipPath id="clip0_51_11646">
<rect width="24" height="24" fill="white"/>
</clipPath>
</defs>
</svg>
